<?xml version="1.0" encoding="UTF-8"?>
<svg xmlns="http://www.w3.org/2000/svg" viewBox="0 0 743 743" width="743" height="743">
<path d="M363.7 84.37C369.6 83.85 375.62 84.39 381.5 84.73C400.13 85.83 418.35 87.54 436.53 91.94C536.06 115.99 615.59 189.49 645.75 287.67C655.37 319 658.97 351.78 657.9 384.5C653.21 529.48 529.48 653.21 384.5 657.9C337.45 659.43 291.5 650.52 248.75 630.73C163.14 591.11 99.08 505.25 87.15 411.5C83.18 380.27 83.46 348.67 89.32 317.7C95.72 283.91 108.43 251.22 126.38 221.85C145.16 191.14 169.82 163.69 198.65 142.09C232.32 116.89 271.49 98.8 312.7 90.31C329.62 86.82 346.55 85.89 363.7 84.37ZM350.44 346.5C314.08 359.52 265.66 361.5 232.69 338.84C224.58 333.26 217.73 326.27 212.65 317.81C208.96 311.64 205.66 302.36 197.37 301.3C185.85 299.82 173.94 320.12 169.18 328.67C158.49 347.88 153.42 369.68 152.94 391.5C152.57 407.77 153.55 422.42 157.34 438.26C172.74 502.54 219.99 547.98 281.27 569.28C290.49 572.48 300 575.85 309.58 577.76C323.52 580.55 337.3 583.21 351.5 584.16C358.81 584.65 366.18 584.33 373.5 584.42C417.29 584.92 461.29 578.58 499.68 556.17C519.69 544.49 538.95 528.1 549.66 507.19C554.26 498.21 558.53 489.44 561.26 479.67C565.05 466.13 566.75 451.51 565.1 437.5C561.96 410.79 550.65 384.17 531.95 364.56C524.95 357.21 516.67 351.03 508.78 344.69C504.39 341.17 499.38 336.71 500.02 330.5C500.3 327.72 502.13 325.42 503.92 323.4C512.25 313.99 522.96 312.89 534.45 309.85C555.65 304.25 573.69 292.89 585.53 274.04C591.45 264.63 595.74 252.24 591.25 241.28C588.2 233.84 579.22 231.09 571.86 232.44C567.52 233.24 563.52 235.57 559.23 236.65C549.54 239.1 532.25 241.77 523.43 236.05C518.82 233.06 517.42 226.61 515.66 221.78C512.96 214.39 509.22 207.21 504.87 200.66C489.91 178.16 465.73 162.88 439.44 157.21C418.58 152.71 398.01 155 378.31 162.79C336.58 179.3 309.09 215.96 308.8 261.5C308.75 268.75 308.77 276.32 310.1 283.47C313.18 299.99 321.07 315.81 332.12 328.35C337.09 334 346.96 341.1 350.44 346.5Z" fill="#00ccff" fill-rule="evenodd" stroke="#00ccff" stroke-width="0.25" stroke-linejoin="round"/>
<path d="M488.99 309.5C484.31 318.93 476.92 328.03 479.07 339.47C481.02 349.82 496.44 359.01 504.33 365.11C516.81 374.76 527.76 387.5 534.85 401.64C540.29 412.47 544.32 424.47 545.83 436.52C553.43 497.48 505.57 542.62 450.23 556.64C398.38 569.77 341.18 569.32 290.33 552.24C268.45 544.89 247.08 535.14 229.11 520.42C218.68 511.87 209.88 501.37 202.04 490.42C176.84 455.19 165.36 410.08 174.75 367.41C177.08 356.83 180.55 346.83 185.87 337.36C188.2 333.22 190.48 328.44 194.5 325.82C202.39 336.1 209.67 345.49 220.12 353.4C242.84 370.6 268.51 376.19 296.5 375.95C309.33 375.84 322.23 374.75 334.53 370.99C344.07 368.07 353.91 365.77 363.56 363.2C368.84 361.8 375.19 360.33 377.2 354.55C379.71 347.34 373.64 340.3 368.71 335.81C356.58 324.78 342.75 315.27 335.48 300.03C331.96 292.65 329.98 284.58 328.74 276.54C320.43 222.46 362.04 174.57 416.5 174.21C449.1 174 481.65 192.14 494.95 222.52C498.35 230.27 500.64 238.97 499.85 247.5C498.21 265.13 488.49 271.01 479.81 284.3C476.15 289.9 474.38 296.96 478.68 302.8C481.13 306.12 485.54 307.47 488.99 309.5ZM443.6 221.36C417.93 222.87 419.9 266.84 446.5 265.28C472.4 263.76 469.53 219.83 443.6 221.36ZM233.5 416.05C230.51 419.62 232.73 431.88 233.63 436.74C237.29 456.42 249.55 473.18 265.36 485.09C304.9 514.88 368.51 523.28 411.87 497.39C440.24 480.46 459.29 444.91 438.05 414.41C434.94 409.94 431.33 405.12 426.45 402.5C427.39 407.01 430.64 410.92 431.77 415.6C435.13 429.62 433.12 444.88 425.9 457.38C403.35 496.44 350.97 496.68 312.4 487.24C293.2 482.53 269.33 469.7 259.79 451.5C264.59 451.47 269.6 454.16 274.5 454.93C287.47 456.98 302.88 457.66 315.7 454.5C312.49 452.38 308.28 452.46 304.55 451.79C297.86 450.59 291.15 448.8 284.67 446.76C262.97 439.91 249.93 431.3 233.5 416.05Z" fill="#fec511" fill-rule="evenodd" stroke="#fec511" stroke-width="0.25" stroke-linejoin="round"/>
<path d="M348.64 66.34C356.15 65.49 363.95 65.72 371.5 65.72C400.38 65.72 429.01 69.61 456.72 77.71C546.21 103.87 619.53 170.46 654.8 256.69C668.81 290.93 675.71 327.66 677 364.5C678.12 396.64 673.09 429.65 663.79 460.34C651.84 499.76 631.65 536.22 605.45 567.91C581.89 596.4 552.23 620.55 519.92 638.44C482.27 659.3 440.35 672.26 397.5 675.9C358.33 679.24 318.74 674.85 281.19 663.41C246.86 652.96 213.7 636.24 185.44 614.04C147.89 584.53 115.97 547.33 95.65 503.81C78.93 468.01 67.9 429.07 66.01 389.5C60.72 278.65 112.05 175.43 205.06 114.54C238.87 92.41 277.81 77.12 317.56 70.22C327.88 68.42 338.25 67.52 348.64 66.34ZM363.7 84.37C346.55 85.89 329.62 86.82 312.7 90.31C271.49 98.8 232.32 116.89 198.65 142.09C169.82 163.69 145.16 191.14 126.38 221.85C108.43 251.22 95.72 283.91 89.32 317.7C83.46 348.67 83.18 380.27 87.15 411.5C99.08 505.25 163.14 591.11 248.75 630.73C291.5 650.52 337.45 659.43 384.5 657.9C529.48 653.21 653.21 529.48 657.9 384.5C658.97 351.78 655.37 319 645.75 287.67C615.59 189.49 536.06 115.99 436.53 91.94C418.35 87.54 400.13 85.83 381.5 84.73C375.62 84.39 369.6 83.85 363.7 84.37ZM350.44 346.5C346.96 341.1 337.09 334 332.12 328.35C321.07 315.81 313.18 299.99 310.1 283.47C308.77 276.32 308.75 268.75 308.8 261.5C309.09 215.96 336.58 179.3 378.31 162.79C398.01 155 418.58 152.71 439.44 157.21C465.73 162.88 489.91 178.16 504.87 200.66C509.22 207.21 512.96 214.39 515.66 221.78C517.42 226.61 518.82 233.06 523.43 236.05C532.25 241.77 549.54 239.1 559.23 236.65C563.52 235.57 567.52 233.24 571.86 232.44C579.22 231.09 588.2 233.84 591.25 241.28C595.74 252.24 591.45 264.63 585.53 274.04C573.69 292.89 555.65 304.25 534.45 309.85C522.96 312.89 512.25 313.99 503.92 323.4C502.13 325.42 500.3 327.72 500.02 330.5C499.38 336.71 504.39 341.17 508.78 344.69C516.67 351.03 524.95 357.21 531.95 364.56C550.65 384.17 561.96 410.79 565.1 437.5C566.75 451.51 565.05 466.13 561.26 479.67C558.53 489.44 554.26 498.21 549.66 507.19C538.95 528.1 519.69 544.49 499.68 556.17C461.29 578.58 417.29 584.92 373.5 584.42C366.18 584.33 358.81 584.65 351.5 584.16C337.3 583.21 323.52 580.55 309.58 577.76C300 575.85 290.49 572.48 281.27 569.28C219.99 547.98 172.74 502.54 157.34 438.26C153.55 422.42 152.57 407.77 152.94 391.5C153.42 369.68 158.49 347.88 169.18 328.67C173.94 320.12 185.85 299.82 197.37 301.3C205.66 302.36 208.96 311.64 212.65 317.81C217.73 326.27 224.58 333.26 232.69 338.84C265.66 361.5 314.08 359.52 350.44 346.5ZM488.99 309.5C485.54 307.47 481.13 306.12 478.68 302.8C474.38 296.96 476.15 289.9 479.81 284.3C488.49 271.01 498.21 265.13 499.85 247.5C500.64 238.97 498.35 230.27 494.95 222.52C481.65 192.14 449.1 174 416.5 174.21C362.04 174.57 320.43 222.46 328.74 276.54C329.98 284.58 331.96 292.65 335.48 300.03C342.75 315.27 356.58 324.78 368.71 335.81C373.64 340.3 379.71 347.34 377.2 354.55C375.19 360.33 368.84 361.8 363.56 363.2C353.91 365.77 344.07 368.07 334.53 370.99C322.23 374.75 309.33 375.84 296.5 375.95C268.51 376.19 242.84 370.6 220.12 353.4C209.67 345.49 202.39 336.1 194.5 325.82C190.48 328.44 188.2 333.22 185.87 337.36C180.55 346.83 177.08 356.83 174.75 367.41C165.36 410.08 176.84 455.19 202.04 490.42C209.88 501.37 218.68 511.87 229.11 520.42C247.08 535.14 268.45 544.89 290.33 552.24C341.18 569.32 398.38 569.77 450.23 556.64C505.57 542.62 553.43 497.48 545.83 436.52C544.32 424.47 540.29 412.47 534.85 401.64C527.76 387.5 516.81 374.76 504.33 365.11C496.44 359.01 481.02 349.82 479.07 339.47C476.92 328.03 484.31 318.93 488.99 309.5ZM443.6 221.36C469.53 219.83 472.4 263.76 446.5 265.28C419.9 266.84 417.93 222.87 443.6 221.36ZM516.5 249.32C513.68 258.16 512.1 266.77 507.54 275.05C504.09 281.3 499.19 285.91 494.9 291.5C499.88 295.65 510.21 294.63 516.5 294.17C535.18 292.81 553.51 285.94 565.53 271.05C569.53 266.09 574.81 258.24 573.5 251.84C559.27 256.27 538.4 262.12 524.15 255.37C521.12 253.94 518.99 251.46 516.5 249.32ZM233.5 416.05C249.93 431.3 262.97 439.91 284.67 446.76C291.15 448.8 297.86 450.59 304.55 451.79C308.28 452.46 312.49 452.38 315.7 454.5C302.88 457.66 287.47 456.98 274.5 454.93C269.6 454.16 264.59 451.47 259.79 451.5C269.33 469.7 293.2 482.53 312.4 487.24C350.97 496.68 403.35 496.44 425.9 457.38C433.12 444.88 435.13 429.62 431.77 415.6C430.64 410.92 427.39 407.01 426.45 402.5C431.33 405.12 434.94 409.94 438.05 414.41C459.29 444.91 440.24 480.46 411.87 497.39C368.51 523.28 304.9 514.88 265.36 485.09C249.55 473.18 237.29 456.42 233.63 436.74C232.73 431.88 230.51 419.62 233.5 416.05Z" fill="#030303" fill-rule="evenodd" stroke="#030303" stroke-width="0.25" stroke-linejoin="round"/>
<path d="M516.5 249.32C518.99 251.46 521.12 253.94 524.15 255.37C538.4 262.12 559.27 256.27 573.5 251.84C574.81 258.24 569.53 266.09 565.53 271.05C553.51 285.94 535.18 292.81 516.5 294.17C510.21 294.63 499.88 295.65 494.9 291.5C499.19 285.91 504.09 281.3 507.54 275.05C512.1 266.77 513.68 258.16 516.5 249.32Z" fill="#ee641d" fill-rule="evenodd" stroke="#ee641d" stroke-width="0.25" stroke-linejoin="round"/>
</svg>