<?xml version="1.0" encoding="UTF-8"?>
<svg xmlns="http://www.w3.org/2000/svg" viewBox="0 0 1095 1096" width="1095" height="1096">
<path d="M784.14 425.5C772.82 437.17 760.9 465.36 762.71 481.5C763.27 486.48 765.09 491.54 767.66 495.85C771.28 501.93 777.15 506.46 782.32 511.15C794.02 521.77 806.93 530.48 819.14 540.4C841.4 558.48 860.53 580.14 873.7 605.77C884.28 626.34 892.02 648.78 895.87 671.54C898.3 685.86 898.44 700.99 897.72 715.5C897.03 729.53 895.48 743.53 891.48 757.02C870.3 828.5 812.95 874.8 746.94 903.41C710.9 919.02 672.19 925.25 633.55 930.3C547.06 941.6 458.23 934.63 376.04 905.53C322.08 886.42 272.48 860.16 233.64 816.85C169.87 745.74 135.38 648.72 151.86 553.46C156.1 528.98 163.08 503.93 175.66 482.24C180.69 473.57 185.89 463.29 193.5 456.65C196.01 459.01 197.36 462.26 199.44 465.08C203.68 470.83 207.9 476.56 212.44 482.07C222.13 493.84 234.05 504.17 246.22 513.27C275.84 535.42 312.99 550.23 349.52 554.81C367.24 557.03 385.62 557.18 403.5 556.62C414.15 556.29 424.91 556.16 435.49 554.83C445.94 553.52 456.23 551.23 466.55 549.22C489.48 544.75 511.74 537.25 534.47 531.7C544.28 529.31 557.45 525.06 559.9 513.47C563.52 496.3 547.47 481.84 535.59 471.92C510.41 450.88 484.34 429.79 472.32 398.23C462.91 373.5 458.87 347.02 460.27 320.5C461.04 306.1 464.51 291.94 468.71 278.29C497.13 185.89 597.41 135.79 689.26 162.4C737.19 176.29 777.43 208.45 796.52 255.06C802.5 269.66 806.71 286.49 804.73 302.46C802.58 319.78 796.02 335.93 785.11 349.64C772.6 365.36 748.63 385.32 760.41 408.09C766.17 419.21 775.55 419.12 784.14 425.5ZM687.7 250.41C646.02 258.05 644.18 326.02 687.31 335.35C691.26 336.21 694.92 337.1 699.04 336.49C721.41 333.22 737.58 310.95 734.4 288.46C731.18 265.77 712.07 245.94 687.7 250.41ZM270.5 636.03C267.86 645.14 270.19 656.14 270.82 665.5C273.88 710.67 301.93 750.22 337.87 776.64C367.09 798.12 401.13 812.59 436 821.46C440.02 822.48 444.25 822.63 448.32 823.37C459.68 825.43 470.99 826.61 482.5 827.77C500.9 829.63 519.07 829.08 537.5 827.67C579.2 824.48 615.17 811.35 648.64 786.13C691.55 753.79 714.43 691.17 686.35 642.21C681.03 632.93 666.6 613.05 656.57 609.5C658.93 615.11 663.07 620.17 665.43 626.01C669.38 635.79 671.33 646.99 671.76 657.5C672.31 670.79 671.2 683.1 667.39 695.75C663.81 707.64 658.52 718.59 651.2 728.7C602.46 795.99 516.54 797.21 442.2 782.45C421.33 778.3 400.57 772.42 382.01 761.47C372.03 755.58 363.21 748.46 353.99 741.52C344.6 734.45 327.69 717.25 323.5 706.36C327.35 706.55 330.78 708.75 334.56 709.91C340.58 711.75 346.77 713.26 352.96 714.49C359.01 715.69 365.36 715.87 371.5 716.31C381.8 717.04 391.82 717.98 402.2 717.51C406 717.33 409.71 716.51 413.5 716.27C419.85 715.87 432.04 716.06 437.46 713.5C433.53 711.21 419.11 709.75 413.67 708.67C394.52 704.86 375.05 699.66 356.86 692.53C334.78 683.88 313.01 673.04 294.39 658.07C289.99 654.53 285.6 650.92 281.59 646.93C277.97 643.33 274.57 639.05 270.5 636.03Z" fill="#ffd21e" fill-rule="evenodd" stroke="#ffd21e" stroke-width="0.25" stroke-linejoin="round"/>
<path d="M507.21 498.5C502.7 493.46 496.61 489.49 491.57 484.93C481.34 475.66 471.48 465.45 462.65 454.84C443.25 431.52 432.25 402.17 425.36 373.25C423.93 367.23 424.05 360.81 423.57 354.65C422.42 339.95 421.86 325.88 423.53 311.19C424.2 305.28 424.19 299.4 425.23 293.56C425.45 292.33 426.26 291.4 426.55 290.2C427.38 286.79 427.43 283.17 428.37 279.75C433.48 261.19 440.51 242.56 450.38 225.82C468.79 194.6 494.73 168.05 525.89 149.45C540.53 140.71 556.45 134.62 572.2 128.56C599.81 117.92 630.93 114.24 660.5 118.21C662.7 118.5 664.96 118.18 667.12 118.5C723.16 126.69 777.52 155.5 810.8 202.68C820.93 217.05 829.09 232.55 835.55 248.81C839.91 259.8 841.69 272.98 853.28 279.19C861.35 283.51 870.51 283.97 879.5 284.22C888.54 284.47 901.31 284.56 909.98 282.46C911.23 282.16 912.27 281.43 913.55 281.19C916.68 280.58 920.02 280.45 923.09 279.49C930.63 277.13 938.15 274.27 945.92 272.51C960.41 269.21 979.24 272.12 986.7 286.71C989.84 292.85 989.99 299.74 990.05 306.5C990.09 311.76 990.82 318.13 989.63 323.27C987.7 331.63 983.94 340.63 979.58 348.1C962.26 377.82 936.65 401.43 905.2 415.53C891.57 421.65 876.42 424.74 862.11 428.54C858.74 429.43 855.13 429.56 851.74 430.41C836.12 434.31 824.79 439.07 813.85 451.34C810.13 455.52 805.75 460.8 804.87 466.5C803.2 477.3 811.38 486.03 818.95 492.56C835.1 506.49 852.62 518.57 867.52 533.97C904.54 572.24 928.23 623.22 934.2 675.5C934.43 677.56 935.33 679.5 935.5 681.55C937.74 708.64 934.98 734.78 928.43 760.79C924.11 777.92 917.47 794.07 909.41 809.84C868.73 889.42 784.75 936.49 701.33 957.7C677.61 963.73 651.7 967.9 627.47 970.89C623.88 971.33 620.13 970.9 616.5 971.19C612.75 971.48 609.08 972.4 605.31 972.55C584.45 973.41 563.39 972.91 542.5 972.85C531.86 972.83 521.15 972.9 510.53 972.61C506.8 972.51 503.2 971.47 499.5 971.18C496.19 970.92 492.78 971.33 489.51 970.97C487.82 970.78 486.19 970.04 484.5 969.76C482.19 969.37 479.81 969.82 477.54 969.5C476.12 969.3 474.89 968.51 473.45 968.29C471.5 967.99 469.49 968.27 467.54 967.93C458.42 966.33 449.26 964.42 440.26 962.39C432.47 960.64 424.45 959.75 416.74 957.66C361.49 942.71 307.45 922.19 260.05 888.45C179.25 830.94 125.17 740.35 112.59 642.67C112.36 640.85 111.58 639.14 111.37 637.33C110.96 633.79 111.28 630.07 111.08 626.5C110.24 611.07 110.33 595.93 111.03 580.5C111.41 572.12 111.7 563.79 112.81 555.5C113.95 546.99 116.24 538.33 118.5 530.1C119.73 525.63 120.42 520.96 121.71 516.51C128.08 494.49 137.09 472.5 149.58 453.09C158.32 439.51 168 424.27 181.23 414.67C186.02 411.2 193.47 407.64 199.5 408.71C215.6 411.57 221.53 426.28 228.57 438.97C236.84 453.88 249.31 468.27 262.99 478.5C286.17 495.81 308.32 505.08 335.86 512.51C339.94 513.61 344.24 513.54 348.37 514.27C349.86 514.54 351.19 515.36 352.73 515.56C354.66 515.82 356.61 515.32 358.49 515.52C360.19 515.7 361.76 516.6 363.5 516.8C367.15 517.21 370.85 516.76 374.5 517.14C402.19 520.02 429.88 517.33 456.73 511.41C458.27 511.07 459.89 511.31 461.45 510.95C472.4 508.47 483.25 505.59 494.05 502.56C498.67 501.26 503.04 501.01 507.21 498.5ZM784.14 425.5C775.55 419.12 766.17 419.21 760.41 408.09C748.63 385.32 772.6 365.36 785.11 349.64C796.02 335.93 802.58 319.78 804.73 302.46C806.71 286.49 802.5 269.66 796.52 255.06C777.43 208.45 737.19 176.29 689.26 162.4C597.41 135.79 497.13 185.89 468.71 278.29C464.51 291.94 461.04 306.1 460.27 320.5C458.87 347.02 462.91 373.5 472.32 398.23C484.34 429.79 510.41 450.88 535.59 471.92C547.47 481.84 563.52 496.3 559.9 513.47C557.45 525.06 544.28 529.31 534.47 531.7C511.74 537.25 489.48 544.75 466.55 549.22C456.23 551.23 445.94 553.52 435.49 554.83C424.91 556.16 414.15 556.29 403.5 556.62C385.62 557.18 367.24 557.03 349.52 554.81C312.99 550.23 275.84 535.42 246.22 513.27C234.05 504.17 222.13 493.84 212.44 482.07C207.9 476.56 203.68 470.83 199.44 465.08C197.36 462.26 196.01 459.01 193.5 456.65C185.89 463.29 180.69 473.57 175.66 482.24C163.08 503.93 156.1 528.98 151.86 553.46C135.38 648.72 169.87 745.74 233.64 816.85C272.48 860.16 322.08 886.42 376.04 905.53C458.23 934.63 547.06 941.6 633.55 930.3C672.19 925.25 710.9 919.02 746.94 903.41C812.95 874.8 870.3 828.5 891.48 757.02C895.48 743.53 897.03 729.53 897.72 715.5C898.44 700.99 898.3 685.86 895.87 671.54C892.02 648.78 884.28 626.34 873.7 605.77C860.53 580.14 841.4 558.48 819.14 540.4C806.93 530.48 794.02 521.77 782.32 511.15C777.15 506.46 771.28 501.93 767.66 495.85C765.09 491.54 763.27 486.48 762.71 481.5C760.9 465.36 772.82 437.17 784.14 425.5ZM687.7 250.41C712.07 245.94 731.18 265.77 734.4 288.46C737.58 310.95 721.41 333.22 699.04 336.49C694.92 337.1 691.26 336.21 687.31 335.35C644.18 326.02 646.02 258.05 687.7 250.41ZM837.5 304.42C834.28 328.23 825.1 351.8 810.65 371.22C806.71 376.52 796.16 385.97 794.01 390.5C813.29 395.96 832.2 395.7 851.96 392.51C883.74 387.38 906.46 378.32 929.59 355.11C938.78 345.9 945.5 334.76 950.46 322.84C952.11 318.85 954.39 313.67 952.75 309.5C947.85 311.03 943 313.04 938.07 314.49C915.56 321.12 880.12 326.16 857.58 318.88C852.03 317.09 847.04 313.64 842.9 309.6C841.05 307.79 839.6 305.61 837.5 304.42ZM270.5 636.03C274.57 639.05 277.97 643.33 281.59 646.93C285.6 650.92 289.99 654.53 294.39 658.07C313.01 673.04 334.78 683.88 356.86 692.53C375.05 699.66 394.52 704.86 413.67 708.67C419.11 709.75 433.53 711.21 437.46 713.5C432.04 716.06 419.85 715.87 413.5 716.27C409.71 716.51 406 717.33 402.2 717.51C391.82 717.98 381.8 717.04 371.5 716.31C365.36 715.87 359.01 715.69 352.96 714.49C346.77 713.26 340.58 711.75 334.56 709.91C330.78 708.75 327.35 706.55 323.5 706.36C327.69 717.25 344.6 734.45 353.99 741.52C363.21 748.46 372.03 755.58 382.01 761.47C400.57 772.42 421.33 778.3 442.2 782.45C516.54 797.21 602.46 795.99 651.2 728.7C658.52 718.59 663.81 707.64 667.39 695.75C671.2 683.1 672.31 670.79 671.76 657.5C671.33 646.99 669.38 635.79 665.43 626.01C663.07 620.17 658.93 615.11 656.57 609.5C666.6 613.05 681.03 632.93 686.35 642.21C714.43 691.17 691.55 753.79 648.64 786.13C615.17 811.35 579.2 824.48 537.5 827.67C519.07 829.08 500.9 829.63 482.5 827.77C470.99 826.61 459.68 825.43 448.32 823.37C444.25 822.63 440.02 822.48 436 821.46C401.13 812.59 367.09 798.12 337.87 776.64C301.93 750.22 273.88 710.67 270.82 665.5C270.19 656.14 267.86 645.14 270.5 636.03Z" fill="#111111" fill-rule="evenodd" stroke="#111111" stroke-width="0.25" stroke-linejoin="round"/>
<path d="M837.5 304.42C839.6 305.61 841.05 307.79 842.9 309.6C847.04 313.64 852.03 317.09 857.58 318.88C880.12 326.16 915.56 321.12 938.07 314.49C943 313.04 947.85 311.03 952.75 309.5C954.39 313.67 952.11 318.85 950.46 322.84C945.5 334.76 938.78 345.9 929.59 355.11C906.46 378.32 883.74 387.38 851.96 392.51C832.2 395.7 813.29 395.96 794.01 390.5C796.16 385.97 806.71 376.52 810.65 371.22C825.1 351.8 834.28 328.23 837.5 304.42Z" fill="#ff9f1c" fill-rule="evenodd" stroke="#ff9f1c" stroke-width="0.25" stroke-linejoin="round"/>
</svg>